<?xml version="1.0" encoding="UTF-8" standalone="no"?>
<!-- Created with Inkscape (http://www.inkscape.org/) -->

<svg
   xmlns:dc="http://purl.org/dc/elements/1.1/"
   xmlns:cc="http://creativecommons.org/ns#"
   xmlns:rdf="http://www.w3.org/1999/02/22-rdf-syntax-ns#"
   xmlns:svg="http://www.w3.org/2000/svg"
   xmlns="http://www.w3.org/2000/svg"
   xmlns:xlink="http://www.w3.org/1999/xlink"
   xmlns:sodipodi="http://sodipodi.sourceforge.net/DTD/sodipodi-0.dtd"
   xmlns:inkscape="http://www.inkscape.org/namespaces/inkscape"
   inkscape:export-ydpi="240.00000"
   inkscape:export-xdpi="240.00000"
   inkscape:export-filename="/home/jimmac/gfx/novell/pdes/trunk/docs/BIGmime-text.png"
   sodipodi:docname="network.svg"
   inkscape:version="0.48.1 r9760"
   sodipodi:version="0.32"
   id="svg249"
   height="48.000000px"
   width="48.000000px"
   inkscape:output_extension="org.inkscape.output.svg.inkscape"
   version="1.1">
  <defs
     id="defs3">
    <inkscape:perspective
       sodipodi:type="inkscape:persp3d"
       inkscape:vp_x="0 : 24 : 1"
       inkscape:vp_y="0 : 1000 : 0"
       inkscape:vp_z="48 : 24 : 1"
       inkscape:persp3d-origin="24 : 16 : 1"
       id="perspective78" />
    <linearGradient
       id="linearGradient5048">
      <stop
         style="stop-color:black;stop-opacity:0;"
         offset="0"
         id="stop5050" />
      <stop
         id="stop5056"
         offset="0.5"
         style="stop-color:black;stop-opacity:1;" />
      <stop
         style="stop-color:black;stop-opacity:0;"
         offset="1"
         id="stop5052" />
    </linearGradient>
    <linearGradient
       inkscape:collect="always"
       id="linearGradient4542">
      <stop
         style="stop-color:#000000;stop-opacity:1;"
         offset="0"
         id="stop4544" />
      <stop
         style="stop-color:#000000;stop-opacity:0;"
         offset="1"
         id="stop4546" />
    </linearGradient>
    <linearGradient
       id="linearGradient15662">
      <stop
         id="stop15664"
         offset="0.0000000"
         style="stop-color:#ffffff;stop-opacity:1.0000000;" />
      <stop
         id="stop15666"
         offset="1.0000000"
         style="stop-color:#f8f8f8;stop-opacity:1.0000000;" />
    </linearGradient>
    <radialGradient
       id="aigrd3"
       cx="20.8921"
       cy="64.5679"
       r="5.257"
       fx="20.8921"
       fy="64.5679"
       gradientUnits="userSpaceOnUse">
      <stop
         offset="0"
         style="stop-color:#F0F0F0"
         id="stop15573" />
      <stop
         offset="1.0000000"
         style="stop-color:#9a9a9a;stop-opacity:1.0000000;"
         id="stop15575" />
    </radialGradient>
    <radialGradient
       id="aigrd2"
       cx="20.8921"
       cy="114.5684"
       r="5.256"
       fx="20.8921"
       fy="114.5684"
       gradientUnits="userSpaceOnUse">
      <stop
         offset="0"
         style="stop-color:#F0F0F0"
         id="stop15566" />
      <stop
         offset="1.0000000"
         style="stop-color:#9a9a9a;stop-opacity:1.0000000;"
         id="stop15568" />
    </radialGradient>
    <linearGradient
       id="linearGradient269">
      <stop
         id="stop270"
         offset="0.0000000"
         style="stop-color:#a3a3a3;stop-opacity:1.0000000;" />
      <stop
         id="stop271"
         offset="1.0000000"
         style="stop-color:#4c4c4c;stop-opacity:1.0000000;" />
    </linearGradient>
    <linearGradient
       id="linearGradient259">
      <stop
         id="stop260"
         offset="0.0000000"
         style="stop-color:#fafafa;stop-opacity:1.0000000;" />
      <stop
         id="stop261"
         offset="1.0000000"
         style="stop-color:#bbbbbb;stop-opacity:1.0000000;" />
    </linearGradient>
    <radialGradient
       r="5.256"
       fy="114.5684"
       fx="20.8921"
       cy="114.5684"
       cx="20.8921"
       gradientTransform="matrix(0.229703,0.000000,0.000000,0.229703,4.613529,3.979808)"
       gradientUnits="userSpaceOnUse"
       id="radialGradient2283"
       xlink:href="#aigrd2"
       inkscape:collect="always" />
    <radialGradient
       r="5.257"
       fy="64.5679"
       fx="20.8921"
       cy="64.5679"
       cx="20.8921"
       gradientTransform="matrix(0.229703,0.000000,0.000000,0.229703,4.613529,3.979808)"
       gradientUnits="userSpaceOnUse"
       id="radialGradient2285"
       xlink:href="#aigrd3"
       inkscape:collect="always" />
    <radialGradient
       inkscape:collect="always"
       xlink:href="#linearGradient4542"
       id="radialGradient4548"
       cx="24.306795"
       cy="42.07798"
       fx="24.306795"
       fy="42.07798"
       r="15.821514"
       gradientTransform="matrix(1.000000,0.000000,0.000000,0.284916,0.000000,30.08928)"
       gradientUnits="userSpaceOnUse" />
    <linearGradient
       inkscape:collect="always"
       xlink:href="#linearGradient259"
       id="linearGradient3827"
       x1="13.500002"
       y1="28"
       x2="57.499996"
       y2="28"
       gradientUnits="userSpaceOnUse" />
    <clipPath
       clipPathUnits="userSpaceOnUse"
       id="clipPath3931">
      <path
         transform="matrix(1.0243902,0,0,1.0243903,-0.865854,-0.68292667)"
         d="m 56.999998,28 a 21.499998,18 0 1 1 -42.999996,0 21.499998,18 0 1 1 42.999996,0 z"
         sodipodi:ry="18"
         sodipodi:rx="21.499998"
         sodipodi:cy="28"
         sodipodi:cx="35.5"
         id="path3933"
         style="opacity:0.66666667;fill:#d6ffe3;fill-opacity:0.49152545;stroke:none"
         sodipodi:type="arc" />
    </clipPath>
    <clipPath
       clipPathUnits="userSpaceOnUse"
       id="clipPath3935">
      <path
         transform="matrix(0.97674427,0,0,1.1666667,-10.674422,-8.6666665)"
         d="m 56.999998,28 a 21.499998,18 0 1 1 -42.999996,0 21.499998,18 0 1 1 42.999996,0 z"
         sodipodi:ry="18"
         sodipodi:rx="21.499998"
         sodipodi:cy="28"
         sodipodi:cx="35.5"
         id="path3937"
         style="opacity:0.66666667;fill:#d6ffe3;fill-opacity:0.49152545;stroke:none"
         sodipodi:type="arc" />
    </clipPath>
    <clipPath
       clipPathUnits="userSpaceOnUse"
       id="clipPath3939">
      <path
         transform="matrix(0.97674427,0,0,1.1666667,-10.674422,-8.6666665)"
         d="m 56.999998,28 a 21.499998,18 0 1 1 -42.999996,0 21.499998,18 0 1 1 42.999996,0 z"
         sodipodi:ry="18"
         sodipodi:rx="21.499998"
         sodipodi:cy="28"
         sodipodi:cx="35.5"
         id="path3941"
         style="opacity:0.66666667;fill:#d6ffe3;fill-opacity:0.49152545;stroke:none"
         sodipodi:type="arc" />
    </clipPath>
    <clipPath
       clipPathUnits="userSpaceOnUse"
       id="clipPath3943">
      <path
         transform="matrix(0.97674427,0,0,1.1666667,-10.674422,-8.6666665)"
         d="m 56.999998,28 a 21.499998,18 0 1 1 -42.999996,0 21.499998,18 0 1 1 42.999996,0 z"
         sodipodi:ry="18"
         sodipodi:rx="21.499998"
         sodipodi:cy="28"
         sodipodi:cx="35.5"
         id="path3945"
         style="opacity:0.66666667;fill:#d6ffe3;fill-opacity:0.49152545;stroke:none"
         sodipodi:type="arc" />
    </clipPath>
    <clipPath
       clipPathUnits="userSpaceOnUse"
       id="clipPath3947">
      <path
         transform="matrix(0.97674427,0,0,1.1666667,-10.674422,-8.6666665)"
         d="m 56.999998,28 a 21.499998,18 0 1 1 -42.999996,0 21.499998,18 0 1 1 42.999996,0 z"
         sodipodi:ry="18"
         sodipodi:rx="21.499998"
         sodipodi:cy="28"
         sodipodi:cx="35.5"
         id="path3949"
         style="opacity:0.66666667;fill:#d6ffe3;fill-opacity:0.49152545;stroke:none"
         sodipodi:type="arc" />
    </clipPath>
    <clipPath
       clipPathUnits="userSpaceOnUse"
       id="clipPath3947-4">
      <path
         transform="matrix(0.97674427,0,0,1.1666667,-10.674422,-8.6666665)"
         d="m 56.999998,28 a 21.499998,18 0 1 1 -42.999996,0 21.499998,18 0 1 1 42.999996,0 z"
         sodipodi:ry="18"
         sodipodi:rx="21.499998"
         sodipodi:cy="28"
         sodipodi:cx="35.5"
         id="path3949-5"
         style="opacity:0.66666667;fill:#d6ffe3;fill-opacity:0.49152545;stroke:none"
         sodipodi:type="arc" />
    </clipPath>
    <filter
       color-interpolation-filters="sRGB"
       inkscape:collect="always"
       id="filter4143">
      <feGaussianBlur
         inkscape:collect="always"
         stdDeviation="0.48412918"
         id="feGaussianBlur4145" />
    </filter>
  </defs>
  <sodipodi:namedview
     inkscape:window-y="3"
     inkscape:window-x="206"
     inkscape:window-height="1007"
     inkscape:window-width="1641"
     inkscape:document-units="px"
     inkscape:grid-bbox="true"
     showgrid="true"
     inkscape:current-layer="layer1"
     inkscape:cy="20.873338"
     inkscape:cx="23.147251"
     inkscape:zoom="16.000001"
     inkscape:pageshadow="2"
     inkscape:pageopacity="0"
     borderopacity="1"
     bordercolor="#000000"
     pagecolor="#ffffff"
     id="base"
     inkscape:showpageshadow="true"
     inkscape:snap-global="true"
     inkscape:snap-nodes="true"
     objecttolerance="10000"
     gridtolerance="10000"
     inkscape:snap-bbox="true"
     borderlayer="true"
     guidecolor="#0000ff"
     guideopacity="0.25490196"
     inkscape:window-maximized="0"
     inkscape:snap-grids="true"
     showguides="true"
     inkscape:guide-bbox="true">
    <inkscape:grid
       type="xygrid"
       id="grid2471"
       visible="true"
       enabled="true"
       empspacing="5"
       snapvisiblegridlinesonly="true" />
    <sodipodi:guide
       orientation="1,0"
       position="24,25"
       id="guide4086" />
    <sodipodi:guide
       orientation="0,1"
       position="21,24"
       id="guide4088" />
  </sodipodi:namedview>
  <metadata
     id="metadata4">
    <rdf:RDF>
      <cc:Work
         rdf:about="">
        <dc:format>image/svg+xml</dc:format>
        <dc:type
           rdf:resource="http://purl.org/dc/dcmitype/StillImage" />
        <dc:title>Generic Text</dc:title>
        <dc:subject>
          <rdf:Bag>
            <rdf:li>text</rdf:li>
            <rdf:li>plaintext</rdf:li>
            <rdf:li>regular</rdf:li>
            <rdf:li>document</rdf:li>
          </rdf:Bag>
        </dc:subject>
        <cc:license
           rdf:resource="http://creativecommons.org/licenses/by-sa/2.0/" />
        <dc:creator>
          <cc:Agent>
            <dc:title>Jakub Steiner</dc:title>
          </cc:Agent>
        </dc:creator>
        <dc:source>http://jimmac.musichall.cz</dc:source>
      </cc:Work>
      <cc:License
         rdf:about="http://creativecommons.org/licenses/by/2.0/">
        <cc:permits
           rdf:resource="http://web.resource.org/cc/Reproduction" />
        <cc:permits
           rdf:resource="http://web.resource.org/cc/Distribution" />
        <cc:requires
           rdf:resource="http://web.resource.org/cc/Notice" />
        <cc:requires
           rdf:resource="http://web.resource.org/cc/Attribution" />
        <cc:permits
           rdf:resource="http://web.resource.org/cc/DerivativeWorks" />
        <cc:requires
           rdf:resource="http://web.resource.org/cc/ShareAlike" />
      </cc:License>
    </rdf:RDF>
  </metadata>
  <g
     inkscape:groupmode="layer"
     id="layer6"
     inkscape:label="Shadow" />
  <g
     style="display:inline"
     inkscape:groupmode="layer"
     inkscape:label="Base"
     id="layer1">
    <path
       style="fill:#5d5d5d;fill-opacity:0.66666667;stroke:#5d5d5d;stroke-width:1px;stroke-linecap:butt;stroke-linejoin:miter;stroke-opacity:1"
       d="M 14,14 34,34"
       id="path4090"
       inkscape:connector-curvature="0" />
    <path
       inkscape:connector-curvature="0"
       id="path4092"
       d="M 34.283103,14.033776 13.500003,33.5"
       style="fill:#5d5d5d;fill-opacity:0.66666667;stroke:#5d5d5d;stroke-width:1px;stroke-linecap:butt;stroke-linejoin:miter;stroke-opacity:1" />
    <g
       id="g3970"
       transform="matrix(0.95584234,0,0,0.95584234,-6.4822058,-17.212284)">
      <rect
         transform="matrix(0.32512559,0,0,0.32512559,11.03728,22.263062)"
         clip-path="url(#clipPath3947)"
         ry="1.2385254"
         y="0.049158722"
         x="0.049158722"
         height="48.412918"
         width="48.412918"
         id="rect3927"
         style="fill:#ebebea;fill-opacity:1;stroke:none" />
      <path
         transform="matrix(0.32512559,0,0,0.32512559,11.03728,22.263062)"
         clip-path="url(#clipPath3943)"
         sodipodi:nodetypes="ssccccccss"
         inkscape:connector-curvature="0"
         id="path3831"
         d="m 33.719514,11.719515 c -3.471798,0 -6.288475,2.808687 -6.288475,6.280485 0,2.043007 0.975395,3.861814 2.485026,5.010006 -4.519424,1.55526 -7.769947,5.84148 -7.790678,10.882978 l 0.357624,12.140993 23,0 -0.257264,-12.140993 C 45.205127,28.875418 41.971051,24.607604 37.483011,23.033977 39.010792,21.887181 40,20.057357 40,18 40,14.528202 37.191313,11.719515 33.719514,11.719515 z"
         style="fill:#abaca9;fill-opacity:1;stroke:none" />
      <path
         transform="matrix(0.32512559,0,0,0.32512559,11.03728,22.263062)"
         clip-path="url(#clipPath3939)"
         sodipodi:nodetypes="ssccccccss"
         inkscape:connector-curvature="0"
         id="path3835"
         d="m 11.236503,15.685538 c -3.471798,0 -6.288475,2.808687 -6.288475,6.280485 0,2.043007 0.975395,3.861814 2.485026,5.010006 -4.519424,1.55526 -7.769947,5.84148 -7.790678,10.882978 L 0,50 23,50 22.742736,37.859007 C 22.722116,32.841441 19.48804,28.573627 15,27 c 1.527781,-1.146796 2.516989,-2.97662 2.516989,-5.033977 0,-3.471798 -2.808687,-6.280485 -6.280486,-6.280485 z"
         style="fill:#888a85;fill-opacity:1;stroke:none" />
      <path
         transform="matrix(0.32512559,0,0,0.32512559,11.03728,22.263062)"
         clip-path="url(#clipPath3935)"
         style="fill:#61635e;fill-opacity:1;stroke:none"
         d="m 23.803449,21.709509 c -3.471798,0 -6.288475,2.808687 -6.288475,6.280485 0,2.043007 0.975395,3.861814 2.485026,5.010006 -4.519424,1.55526 -7.769947,5.84148 -7.790678,10.882978 l 0.357624,12.140993 23,0 -0.257264,-12.140993 c -0.02062,-5.017566 -3.254696,-9.28538 -7.742736,-10.859007 1.527781,-1.146796 2.516989,-2.97662 2.516989,-5.033977 0,-3.471798 -2.808687,-6.280485 -6.280486,-6.280485 z"
         id="path3833"
         inkscape:connector-curvature="0"
         sodipodi:nodetypes="ssccccccss" />
      <path
         clip-path="url(#clipPath3931)"
         transform="matrix(0.3100035,0,0,0.37028193,7.8351704,19.698182)"
         d="m 56.999998,28 c 0,9.941125 -9.625877,18 -21.499998,18 -11.874121,0 -21.499998,-8.058875 -21.499998,-18 0,-9.941125 9.625877,-18 21.499998,-18 11.874121,0 21.499998,8.058875 21.499998,18 z"
         sodipodi:ry="18"
         sodipodi:rx="21.499998"
         sodipodi:cy="28"
         sodipodi:cx="35.5"
         id="path3819"
         style="opacity:0.66666667;fill:none;stroke:#5d5d5d;stroke-width:2.16153455;stroke-miterlimit:4;stroke-opacity:1;stroke-dasharray:none"
         sodipodi:type="arc" />
    </g>
    <path
       clip-path="none"
       transform="matrix(0.37209306,0,0,0.44444445,10.790697,11.555555)"
       d="m 56.999998,28 a 21.499998,18 0 1 1 -42.999996,0 21.499998,18 0 1 1 42.999996,0 z"
       sodipodi:ry="18"
       sodipodi:rx="21.499998"
       sodipodi:cy="28"
       sodipodi:cx="35.5"
       id="path4021"
       style="fill:#dbdbdb;stroke:#5d5d5d;stroke-width:1.72132730000000000;stroke-miterlimit:4;stroke-opacity:1;stroke-dasharray:none;fill-opacity:1"
       sodipodi:type="arc" />
    <g
       transform="matrix(0.95584234,0,0,0.95584234,18.465504,-17.212284)"
       id="g4050">
      <rect
         style="fill:#ebebea;fill-opacity:1;stroke:none"
         id="rect4052"
         width="48.412918"
         height="48.412918"
         x="0.049158722"
         y="0.049158722"
         ry="1.2385254"
         clip-path="url(#clipPath3947)"
         transform="matrix(0.32512559,0,0,0.32512559,11.03728,22.263062)" />
      <path
         style="fill:#abaca9;fill-opacity:1;stroke:none"
         d="m 33.719514,11.719515 c -3.471798,0 -6.288475,2.808687 -6.288475,6.280485 0,2.043007 0.975395,3.861814 2.485026,5.010006 -4.519424,1.55526 -7.769947,5.84148 -7.790678,10.882978 l 0.357624,12.140993 23,0 -0.257264,-12.140993 C 45.205127,28.875418 41.971051,24.607604 37.483011,23.033977 39.010792,21.887181 40,20.057357 40,18 40,14.528202 37.191313,11.719515 33.719514,11.719515 z"
         id="path4054"
         inkscape:connector-curvature="0"
         sodipodi:nodetypes="ssccccccss"
         clip-path="url(#clipPath3943)"
         transform="matrix(0.32512559,0,0,0.32512559,11.03728,22.263062)" />
      <path
         style="fill:#888a85;fill-opacity:1;stroke:none"
         d="m 11.236503,15.685538 c -3.471798,0 -6.288475,2.808687 -6.288475,6.280485 0,2.043007 0.975395,3.861814 2.485026,5.010006 -4.519424,1.55526 -7.769947,5.84148 -7.790678,10.882978 L 0,50 23,50 22.742736,37.859007 C 22.722116,32.841441 19.48804,28.573627 15,27 c 1.527781,-1.146796 2.516989,-2.97662 2.516989,-5.033977 0,-3.471798 -2.808687,-6.280485 -6.280486,-6.280485 z"
         id="path4056"
         inkscape:connector-curvature="0"
         sodipodi:nodetypes="ssccccccss"
         clip-path="url(#clipPath3939)"
         transform="matrix(0.32512559,0,0,0.32512559,11.03728,22.263062)" />
      <path
         sodipodi:nodetypes="ssccccccss"
         inkscape:connector-curvature="0"
         id="path4058"
         d="m 23.803449,21.709509 c -3.471798,0 -6.288475,2.808687 -6.288475,6.280485 0,2.043007 0.975395,3.861814 2.485026,5.010006 -4.519424,1.55526 -7.769947,5.84148 -7.790678,10.882978 l 0.357624,12.140993 23,0 -0.257264,-12.140993 c -0.02062,-5.017566 -3.254696,-9.28538 -7.742736,-10.859007 1.527781,-1.146796 2.516989,-2.97662 2.516989,-5.033977 0,-3.471798 -2.808687,-6.280485 -6.280486,-6.280485 z"
         style="fill:#61635e;fill-opacity:1;stroke:none"
         clip-path="url(#clipPath3935)"
         transform="matrix(0.32512559,0,0,0.32512559,11.03728,22.263062)" />
      <path
         sodipodi:type="arc"
         style="opacity:0.66666667;fill:none;stroke:#5d5d5d;stroke-width:2.16153455;stroke-miterlimit:4;stroke-opacity:1;stroke-dasharray:none"
         id="path4060"
         sodipodi:cx="35.5"
         sodipodi:cy="28"
         sodipodi:rx="21.499998"
         sodipodi:ry="18"
         d="m 56.999998,28 c 0,9.941125 -9.625877,18 -21.499998,18 -11.874121,0 -21.499998,-8.058875 -21.499998,-18 0,-9.941125 9.625877,-18 21.499998,-18 11.874121,0 21.499998,8.058875 21.499998,18 z"
         transform="matrix(0.3100035,0,0,0.37028193,7.8351704,19.698182)"
         clip-path="url(#clipPath3931)" />
    </g>
    <g
       id="g4062"
       transform="matrix(0.95584234,0,0,0.95584234,18.465504,7.7354255)">
      <rect
         transform="matrix(0.32512559,0,0,0.32512559,11.03728,22.263062)"
         clip-path="url(#clipPath3947)"
         ry="1.2385254"
         y="0.049158722"
         x="0.049158722"
         height="48.412918"
         width="48.412918"
         id="rect4064"
         style="fill:#ebebea;fill-opacity:1;stroke:none" />
      <path
         transform="matrix(0.32512559,0,0,0.32512559,11.03728,22.263062)"
         clip-path="url(#clipPath3943)"
         sodipodi:nodetypes="ssccccccss"
         inkscape:connector-curvature="0"
         id="path4066"
         d="m 33.719514,11.719515 c -3.471798,0 -6.288475,2.808687 -6.288475,6.280485 0,2.043007 0.975395,3.861814 2.485026,5.010006 -4.519424,1.55526 -7.769947,5.84148 -7.790678,10.882978 l 0.357624,12.140993 23,0 -0.257264,-12.140993 C 45.205127,28.875418 41.971051,24.607604 37.483011,23.033977 39.010792,21.887181 40,20.057357 40,18 40,14.528202 37.191313,11.719515 33.719514,11.719515 z"
         style="fill:#abaca9;fill-opacity:1;stroke:none" />
      <path
         transform="matrix(0.32512559,0,0,0.32512559,11.03728,22.263062)"
         clip-path="url(#clipPath3939)"
         sodipodi:nodetypes="ssccccccss"
         inkscape:connector-curvature="0"
         id="path4068"
         d="m 11.236503,15.685538 c -3.471798,0 -6.288475,2.808687 -6.288475,6.280485 0,2.043007 0.975395,3.861814 2.485026,5.010006 -4.519424,1.55526 -7.769947,5.84148 -7.790678,10.882978 L 0,50 23,50 22.742736,37.859007 C 22.722116,32.841441 19.48804,28.573627 15,27 c 1.527781,-1.146796 2.516989,-2.97662 2.516989,-5.033977 0,-3.471798 -2.808687,-6.280485 -6.280486,-6.280485 z"
         style="fill:#888a85;fill-opacity:1;stroke:none" />
      <path
         transform="matrix(0.32512559,0,0,0.32512559,11.03728,22.263062)"
         clip-path="url(#clipPath3935)"
         style="fill:#61635e;fill-opacity:1;stroke:none"
         d="m 23.803449,21.709509 c -3.471798,0 -6.288475,2.808687 -6.288475,6.280485 0,2.043007 0.975395,3.861814 2.485026,5.010006 -4.519424,1.55526 -7.769947,5.84148 -7.790678,10.882978 l 0.357624,12.140993 23,0 -0.257264,-12.140993 c -0.02062,-5.017566 -3.254696,-9.28538 -7.742736,-10.859007 1.527781,-1.146796 2.516989,-2.97662 2.516989,-5.033977 0,-3.471798 -2.808687,-6.280485 -6.280486,-6.280485 z"
         id="path4070"
         inkscape:connector-curvature="0"
         sodipodi:nodetypes="ssccccccss" />
      <path
         clip-path="url(#clipPath3931)"
         transform="matrix(0.3100035,0,0,0.37028193,7.8351704,19.698182)"
         d="m 56.999998,28 c 0,9.941125 -9.625877,18 -21.499998,18 -11.874121,0 -21.499998,-8.058875 -21.499998,-18 0,-9.941125 9.625877,-18 21.499998,-18 11.874121,0 21.499998,8.058875 21.499998,18 z"
         sodipodi:ry="18"
         sodipodi:rx="21.499998"
         sodipodi:cy="28"
         sodipodi:cx="35.5"
         id="path4072"
         style="opacity:0.66666667;fill:none;stroke:#5d5d5d;stroke-width:2.16153455;stroke-miterlimit:4;stroke-opacity:1;stroke-dasharray:none"
         sodipodi:type="arc" />
    </g>
    <g
       transform="matrix(0.95584234,0,0,0.95584234,-6.4822058,7.7354255)"
       id="g4074">
      <rect
         style="fill:#ebebea;fill-opacity:1;stroke:none"
         id="rect4076"
         width="48.412918"
         height="48.412918"
         x="0.049158722"
         y="0.049158722"
         ry="1.2385254"
         clip-path="url(#clipPath3947)"
         transform="matrix(0.32512559,0,0,0.32512559,11.03728,22.263062)" />
      <path
         style="fill:#abaca9;fill-opacity:1;stroke:none"
         d="m 33.719514,11.719515 c -3.471798,0 -6.288475,2.808687 -6.288475,6.280485 0,2.043007 0.975395,3.861814 2.485026,5.010006 -4.519424,1.55526 -7.769947,5.84148 -7.790678,10.882978 l 0.357624,12.140993 23,0 -0.257264,-12.140993 C 45.205127,28.875418 41.971051,24.607604 37.483011,23.033977 39.010792,21.887181 40,20.057357 40,18 40,14.528202 37.191313,11.719515 33.719514,11.719515 z"
         id="path4078"
         inkscape:connector-curvature="0"
         sodipodi:nodetypes="ssccccccss"
         clip-path="url(#clipPath3943)"
         transform="matrix(0.32512559,0,0,0.32512559,11.03728,22.263062)" />
      <path
         style="fill:#888a85;fill-opacity:1;stroke:none"
         d="m 11.236503,15.685538 c -3.471798,0 -6.288475,2.808687 -6.288475,6.280485 0,2.043007 0.975395,3.861814 2.485026,5.010006 -4.519424,1.55526 -7.769947,5.84148 -7.790678,10.882978 L 0,50 23,50 22.742736,37.859007 C 22.722116,32.841441 19.48804,28.573627 15,27 c 1.527781,-1.146796 2.516989,-2.97662 2.516989,-5.033977 0,-3.471798 -2.808687,-6.280485 -6.280486,-6.280485 z"
         id="path4080"
         inkscape:connector-curvature="0"
         sodipodi:nodetypes="ssccccccss"
         clip-path="url(#clipPath3939)"
         transform="matrix(0.32512559,0,0,0.32512559,11.03728,22.263062)" />
      <path
         sodipodi:nodetypes="ssccccccss"
         inkscape:connector-curvature="0"
         id="path4082"
         d="m 23.803449,21.709509 c -3.471798,0 -6.288475,2.808687 -6.288475,6.280485 0,2.043007 0.975395,3.861814 2.485026,5.010006 -4.519424,1.55526 -7.769947,5.84148 -7.790678,10.882978 l 0.357624,12.140993 23,0 -0.257264,-12.140993 c -0.02062,-5.017566 -3.254696,-9.28538 -7.742736,-10.859007 1.527781,-1.146796 2.516989,-2.97662 2.516989,-5.033977 0,-3.471798 -2.808687,-6.280485 -6.280486,-6.280485 z"
         style="fill:#61635e;fill-opacity:1;stroke:none"
         clip-path="url(#clipPath3935)"
         transform="matrix(0.32512559,0,0,0.32512559,11.03728,22.263062)" />
      <path
         sodipodi:type="arc"
         style="opacity:0.66666667;fill:none;stroke:#5d5d5d;stroke-width:2.16153455;stroke-miterlimit:4;stroke-opacity:1;stroke-dasharray:none"
         id="path4084"
         sodipodi:cx="35.5"
         sodipodi:cy="28"
         sodipodi:rx="21.499998"
         sodipodi:ry="18"
         d="m 56.999998,28 c 0,9.941125 -9.625877,18 -21.499998,18 -11.874121,0 -21.499998,-8.058875 -21.499998,-18 0,-9.941125 9.625877,-18 21.499998,-18 11.874121,0 21.499998,8.058875 21.499998,18 z"
         transform="matrix(0.3100035,0,0,0.37028193,7.8351704,19.698182)"
         clip-path="url(#clipPath3931)" />
    </g>
    <rect
       transform="matrix(0.38108232,0,0,0.38108232,14.851296,14.81293)"
       clip-path="url(#clipPath3947-4)"
       ry="1.2385254"
       y="0.049158722"
       x="0.049158722"
       height="48.412918"
       width="48.412918"
       id="rect4117"
       style="opacity:0.14901961;fill:#02d1ff;fill-opacity:1;stroke:none;display:inline;filter:url(#filter4143)" />
  </g>
  <g
     inkscape:groupmode="layer"
     id="layer5"
     inkscape:label="Text"
     style="display:inline" />
</svg>
