<?xml version="1.0" encoding="UTF-8" standalone="no"?>
<!-- Created with Inkscape (http://www.inkscape.org/) -->

<svg
   xmlns:dc="http://purl.org/dc/elements/1.1/"
   xmlns:cc="http://creativecommons.org/ns#"
   xmlns:rdf="http://www.w3.org/1999/02/22-rdf-syntax-ns#"
   xmlns:svg="http://www.w3.org/2000/svg"
   xmlns="http://www.w3.org/2000/svg"
   xmlns:sodipodi="http://sodipodi.sourceforge.net/DTD/sodipodi-0.dtd"
   xmlns:inkscape="http://www.inkscape.org/namespaces/inkscape"
   width="36"
   height="36"
   id="svg4506"
   version="1.1"
   inkscape:version="0.48.5 r10040"
   sodipodi:docname="logo.svg"
   inkscape:export-filename="/home/elijah/dev/crabgrass/crabgrass-core/extensions/themes/default/images/logo.png"
   inkscape:export-xdpi="90"
   inkscape:export-ydpi="90">
  <defs
     id="defs4508">
    <clipPath
       clipPathUnits="userSpaceOnUse"
       id="clipPath3026">
      <path
         transform="matrix(0.09221004,0,0,0.09221004,-68.258024,960.6646)"
         d="m 1103.7371,801.35101 a 170.90123,170.90123 0 1 1 -341.80245,0 170.90123,170.90123 0 1 1 341.80245,0 z"
         sodipodi:ry="170.90123"
         sodipodi:rx="170.90123"
         sodipodi:cy="801.35101"
         sodipodi:cx="932.83588"
         id="path3028"
         style="fill:#4e9a06;fill-opacity:1;fill-rule:nonzero;stroke:none;display:inline"
         sodipodi:type="arc" />
    </clipPath>
  </defs>
  <sodipodi:namedview
     id="base"
     pagecolor="#000000"
     bordercolor="#666666"
     borderopacity="1.0"
     inkscape:pageopacity="0"
     inkscape:pageshadow="2"
     inkscape:zoom="8"
     inkscape:cx="41.465279"
     inkscape:cy="-2.0011309"
     inkscape:document-units="px"
     inkscape:current-layer="layer1"
     showgrid="false"
     units="px"
     inkscape:snap-global="false"
     inkscape:window-width="1579"
     inkscape:window-height="887"
     inkscape:window-x="86"
     inkscape:window-y="42"
     inkscape:window-maximized="0"
     showguides="true"
     inkscape:guide-bbox="true">
    <inkscape:grid
       type="xygrid"
       id="grid5125"
       empspacing="5"
       visible="true"
       enabled="true"
       snapvisiblegridlinesonly="true" />
    <sodipodi:guide
       orientation="0,1"
       position="0.75,0"
       id="guide3856" />
  </sodipodi:namedview>
  <metadata
     id="metadata4511">
    <rdf:RDF>
      <cc:Work
         rdf:about="">
        <dc:format>image/svg+xml</dc:format>
        <dc:type
           rdf:resource="http://purl.org/dc/dcmitype/StillImage" />
        <dc:title></dc:title>
      </cc:Work>
    </rdf:RDF>
  </metadata>
  <g
     inkscape:label="Layer 1"
     inkscape:groupmode="layer"
     id="layer1"
     transform="translate(0,-1016.3621)">
    <g
       id="g3030"
       transform="matrix(1.0153051,0,0,1.0153051,-0.03061029,-16.02915)">
      <path
         transform="matrix(0.09221004,0,0,0.09221004,-68.258024,960.6646)"
         d="m 1103.7371,801.35101 c 0,94.38615 -76.5151,170.90123 -170.90122,170.90123 -94.38615,0 -170.90123,-76.51508 -170.90123,-170.90123 0,-94.38614 76.51508,-170.90123 170.90123,-170.90123 94.38612,0 170.90122,76.51509 170.90122,170.90123 z"
         sodipodi:ry="170.90123"
         sodipodi:rx="170.90123"
         sodipodi:cy="801.35101"
         sodipodi:cx="932.83588"
         id="path3287"
         style="fill:#4e9a06;fill-opacity:1;fill-rule:nonzero;stroke:none;display:inline"
         sodipodi:type="arc" />
      <path
         clip-path="url(#clipPath3026)"
         id="path3289"
         d="m 10.347409,1020.4033 0.346461,2.4341 0.0918,1.0868 0.245782,2.135 0.183594,1.3889 0.435293,2.6117 0.346461,2.0877 0.959433,2.5229 0.607051,1.6524 0.435293,1.0453 0.435297,2.2623 -0.346461,1.8271 0,0.4353 -0.25466,1.5872 -0.02074,0.1155 -0.384955,-0.5952 -1.14007,-1.0364 -1.59905,-1.0986 -2.549597,-0.8084 -1.9573577,-0.1807 -0.6573885,-0.1362 -0.6514669,-0.1658 -1.8981338,-0.1185 0.4234536,0.4857 1.5990534,1.6227 1.1400624,1.0364 1.5901671,0.998 1.8063412,0.7758 1.5013312,0.61 1.240741,0.2991 0.947587,0.2576 0.556709,0.9091 0.01777,1.1519 0.242817,2.7391 0.04145,0 0,0.021 0.376073,-0.041 0.70773,-0.039 0.376073,0.027 1.744149,-2.3157 0.186558,-0.2843 0.85875,-0.3464 1.116373,-1.0601 0.766953,-0.9802 0.547824,-0.9861 0.648502,-1.4599 0.299084,-1.4302 -0.06218,-0.6248 -1.19929,0.5922 -1.590167,0.915 -1.054191,1.3207 -0.524133,0.7699 -0.923896,1.9307 0.248743,1.072 -0.40865,0.095 -0.861707,1.2408 0.07403,-1.2437 -0.04738,-2.0225 0.03258,-1.6613 -0.01777,-0.3612 0.319813,-0.5301 0.849865,-0.7403 2.594013,-0.9831 1.71454,-0.613 1.228902,-0.8232 0.441219,-0.2872 1.909977,-1.3474 1.353275,-1.0157 0.618891,-0.2428 1.074916,-0.5922 1.498371,-1.4244 1.557594,-1.528 2.300858,-2.1054 -0.269468,0.1422 0.287237,-0.2784 -2.77465,0.5389 -3.162569,0.8381 -2.093574,0.8498 -2.043233,0.8854 -1.806333,0.9743 -2.943439,2.1676 -0.349426,0.2961 -0.909092,0.7462 -0.49452,0.69 -0.02961,0.033 -0.74622,0.9417 0.06218,-0.6041 0.331654,-1.454 0.266507,-2.1705 0.09772,-0.8114 -0.174711,-3.4764 -1.131183,-2.6977 -1.477641,-2.6118 -1.827067,-3.5653 -1.30293,-2.2623 z m 5.152503,19.6684 0.01184,0.083 -0.02074,0.03 0.0089,-0.1126 z"
         style="fill:#000000;fill-opacity:1;fill-rule:evenodd;stroke:none;display:inline"
         inkscape:connector-curvature="0" />
    </g>
  </g>
</svg>
